<svg xmlns="http://www.w3.org/2000/svg" viewBox="0 0 64 64">
  <rect width="64" height="64" rx="18" fill="#173c2d"/>
  <g fill="none" stroke="#f4efe4" stroke-width="2.7" stroke-linecap="round" stroke-linejoin="round">
    <path d="M12 28h34v10c0 10-7 16-17 16S12 48 12 38V28Z"/>
    <path d="M46 32h3a8 8 0 0 1 0 16h-7M23 23c-5-6 5-7 1-14M33 23c-5-7 6-8 2-16"/>
    <path d="M39 19c1-8 6-12 13-12 0 7-4 12-13 12Z" fill="#c26b43" stroke="#c26b43"/>
    <path d="M39 19c4-4 7-6 11-9" stroke="#173c2d"/>
  </g>
</svg>
